<?xml version="1.0" encoding="UTF-8"?>
<svg width="128px" height="29px" viewBox="0 0 128 29" version="1.1" xmlns="http://www.w3.org/2000/svg" xmlns:xlink="http://www.w3.org/1999/xlink">
    <title>tipografia_logo copy 5</title>
    <defs>
        <filter id="filter-1">
            <feColorMatrix in="SourceGraphic" type="matrix" values="0 0 0 0 0.886275 0 0 0 0 0.886275 0 0 0 0 0.886275 0 0 0 1.000000 0"></feColorMatrix>
        </filter>
        <polygon id="path-2" points="0 0 128 0 128 29 0 29"></polygon>
    </defs>
    <g id="v2-home" stroke="none" stroke-width="1" fill="none" fill-rule="evenodd">
        <g id="tipografia_logo-copy-5" transform="translate(-96.000000, -7.000000)" filter="url(#filter-1)">
            <g transform="translate(96.000000, 7.000000)">
                <mask id="mask-3" fill="white">
                    <use xlink:href="#path-2"></use>
                </mask>
                <g id="Clip-2"></g>
                <path d="M119.606855,24.1409271 L121.618735,24.1409271 L122,28.4355731 L121.159091,28.4355731 L121.075197,27.4231405 L120.603342,27.4231405 L120.678965,26.5029824 L121.002331,26.5029824 L120.87905,25.0610852 L120.346934,25.0610852 L120.284702,25.7820338 L120.223259,26.5029824 L120.225622,26.5029824 L120.114945,27.8538987 L120.066499,28.4355731 L119.225984,28.4355731 L119.606855,24.1409271 Z M116.339715,24.1409271 L117.179837,24.1409271 L117.179837,25.8587855 L117.830114,25.8587855 L118.132605,25.545742 L118.132605,25.0610852 L117.633573,25.0610852 L117.633573,24.1409271 L118.973514,24.1409271 L118.973514,25.8587855 L118.485905,26.2882501 L118.973514,26.7177147 L118.973514,28.4355731 L117.633573,28.4355731 L117.633573,27.5149838 L118.132605,27.5149838 L118.132605,27.030327 L117.830114,26.7177147 L117.179837,26.7177147 L117.179837,28.4355731 L116.339715,28.4355731 L116.339715,24.1409271 Z M113.453446,24.1409271 L116.087245,24.1409271 L116.087245,25.0610852 L115.1908,25.0610852 L115.1908,28.4355731 L114.349891,28.4355731 L114.349891,25.0610852 L113.453446,25.0610852 L113.453446,24.1409271 Z M110.623107,24.1409271 L113.257299,24.1409271 L113.257299,25.4784765 L112.416784,25.4784765 L112.416784,25.0610852 L111.463622,25.0610852 L111.463622,27.5149838 L112.416784,27.5149838 L112.416784,27.0984549 L113.257299,27.0984549 L113.257299,28.4355731 L110.623107,28.4355731 L110.623107,24.1409271 Z M107.59662,24.1409271 L110.230813,24.1409271 L110.230813,25.4784765 L109.390298,25.4784765 L109.390298,25.0610852 L108.437136,25.0610852 L108.437136,27.5149838 L109.390298,27.5149838 L109.390298,27.0984549 L110.230813,27.0984549 L110.230813,28.4355731 L107.59662,28.4355731 L107.59662,24.1409271 Z M104.542564,24.1409271 L105.383079,24.1409271 L105.383079,25.9019044 L106.307883,25.9019044 L106.307883,24.1409271 L107.148398,24.1409271 L107.148398,28.4355731 L104.542564,28.4355731 L104.542564,27.5149838 L106.307883,27.5149838 L106.307883,26.8220625 L104.542564,26.8220625 L104.542564,24.1409271 Z M102.412916,26.729788 L102.412916,28.4355731 L101.572401,28.4355731 L101.572401,24.1409271 L102.412916,24.1409271 L102.412916,25.8096299 L102.799695,25.8096299 L103.533866,24.1409271 L104.419283,24.1409271 L103.472029,26.2149479 L104.475212,28.4355731 L103.550409,28.4355731 L102.799695,26.729788 L102.412916,26.729788 Z M98.5459147,24.1409271 L101.179714,24.1409271 L101.179714,25.4784765 L100.339198,25.4784765 L100.339198,25.0610852 L99.3868241,25.0610852 L99.3868241,27.5149838 L100.339198,27.5149838 L100.339198,27.0984549 L101.179714,27.0984549 L101.179714,28.4355731 L98.5459147,28.4355731 L98.5459147,24.1409271 Z M97.2567829,24.1409271 L98.0972984,24.1409271 L98.0972984,28.4355731 L97.2567829,28.4355731 L97.2567829,25.8708588 L96.1472552,28.4355731 L95.3063458,28.4355731 L95.3063458,24.1409271 L96.1472552,24.1409271 L96.1472552,26.7052102 L97.2567829,24.1409271 Z M92.4622209,24.1409271 L93.5524491,24.1409271 L93.5524491,28.4355731 L92.4622209,28.4355731 L92.4622209,27.5149838 L92.7115397,27.5149838 L92.7115397,25.0610852 L92.4622209,25.0610852 L92.4622209,24.1409271 Z M90.91865,24.1409271 L92.0088782,24.1409271 L92.0088782,25.0610852 L91.7587716,25.0610852 L91.7587716,27.5149838 L92.0088782,27.5149838 L92.0088782,28.4355731 L90.91865,28.4355731 L90.91865,24.1409271 Z M88.3518086,24.1409271 L90.6772086,24.1409271 L90.6772086,25.0610852 L89.1923241,25.0610852 L89.1923241,28.4355731 L88.3518086,28.4355731 L88.3518086,24.1409271 Z M86.8129641,27.5149838 L87.0626768,27.5149838 L87.0626768,25.0610852 L86.8129641,25.0610852 L86.8129641,24.1409271 L87.9031923,24.1409271 L87.9031923,28.4355731 L86.8129641,28.4355731 L86.8129641,27.5149838 Z M85.2693932,24.1409271 L86.3596214,24.1409271 L86.3596214,25.0610852 L86.1099087,25.0610852 L86.1099087,27.5149838 L86.3596214,27.5149838 L86.3596214,28.4355731 L85.2693932,28.4355731 L85.2693932,24.1409271 Z M82.1869778,24.1409271 L83.0278872,24.1409271 L83.0278872,25.8096299 L83.9802614,25.8096299 L83.9802614,24.1409271 L84.8207769,24.1409271 L84.8207769,28.4355731 L83.9802614,28.4355731 L83.9802614,26.729788 L83.0278872,26.729788 L83.0278872,28.4355731 L82.1869778,28.4355731 L82.1869778,24.1409271 Z M79.1049563,24.1409271 L79.9450779,24.1409271 L79.9450779,25.8096299 L80.897846,25.8096299 L80.897846,24.1409271 L81.7387554,24.1409271 L81.7387554,28.4355731 L80.897846,28.4355731 L80.897846,26.729788 L79.9450779,26.729788 L79.9450779,28.4355731 L79.1049563,28.4355731 L79.1049563,24.1409271 Z M76.1623642,24.1409271 L78.740234,24.1409271 L78.740234,25.0610852 L77.0028798,25.0610852 L77.0028798,25.828171 L77.8886902,25.828171 L77.8886902,26.7483291 L77.0028798,26.7483291 L77.0028798,27.5149838 L78.740234,27.5149838 L78.740234,28.4355731 L76.1623642,28.4355731 L76.1623642,24.1409271 Z M72.4296719,24.1409271 L73.2705812,24.1409271 L74.0717099,25.7117499 L74.8732324,24.1409271 L75.7137479,24.1409271 L75.7137479,28.4355731 L74.8732324,28.4355731 L74.8732324,25.6500898 L74.0717099,27.1963349 L73.2705812,25.6500898 L73.2705812,28.4355731 L72.4296719,28.4355731 L72.4296719,24.1409271 Z M69.4878676,24.1409271 L72.0653434,24.1409271 L72.0653434,25.0610852 L70.3279892,25.0610852 L70.3279892,25.828171 L71.2134057,25.828171 L71.2134057,26.7483291 L70.3279892,26.7483291 L70.3279892,27.5149838 L72.0653434,27.5149838 L72.0653434,28.4355731 L69.4878676,28.4355731 L69.4878676,24.1409271 Z M66.4334168,24.1409271 L69.0672159,24.1409271 L69.0672159,27.1471793 L67.7272751,27.1471793 L67.7272751,26.2270212 L68.2263065,26.2270212 L68.2263065,25.0610852 L67.2739324,25.0610852 L67.2739324,28.4355731 L66.4334168,28.4355731 L66.4334168,24.1409271 Z M63.3506076,24.1409271 L64.191517,24.1409271 L64.191517,25.8587855 L64.841794,25.8587855 L65.144285,25.545742 L65.144285,25.0610852 L64.6448597,25.0610852 L64.6448597,24.1409271 L65.9848005,24.1409271 L65.9848005,25.8587855 L65.4975851,26.2882501 L65.9848005,26.7177147 L65.9848005,28.4355731 L64.6448597,28.4355731 L64.6448597,27.5149838 L65.144285,27.5149838 L65.144285,27.030327 L64.841794,26.7177147 L64.191517,26.7177147 L64.191517,28.4355731 L63.3506076,28.4355731 L63.3506076,24.1409271 Z M61.812157,27.5149838 L62.0618696,27.5149838 L62.0618696,25.0610852 L61.812157,25.0610852 L61.812157,24.1409271 L62.9023852,24.1409271 L62.9023852,28.4355731 L61.812157,28.4355731 L61.812157,27.5149838 Z M60.2685861,24.1409271 L61.3588143,24.1409271 L61.3588143,25.0610852 L61.1091016,25.0610852 L61.1091016,27.5149838 L61.3588143,27.5149838 L61.3588143,28.4355731 L60.2685861,28.4355731 L60.2685861,24.1409271 Z M57.2421,24.1409271 L59.876293,24.1409271 L59.876293,25.4784765 L59.0353836,25.4784765 L59.0353836,25.0610852 L58.0826155,25.0610852 L58.0826155,27.5149838 L59.0353836,27.5149838 L59.0353836,27.0984549 L59.876293,27.0984549 L59.876293,28.4355731 L57.2421,28.4355731 L57.2421,24.1409271 Z M52.881975,24.1409271 L55.516168,24.1409271 L55.516168,27.1471793 L54.1762271,27.1471793 L54.1762271,26.2270212 L54.6756525,26.2270212 L54.6756525,25.0610852 L53.7228844,25.0610852 L53.7228844,28.4355731 L52.881975,28.4355731 L52.881975,24.1409271 Z M49.9957062,24.1409271 L52.6298991,24.1409271 L52.6298991,25.0610852 L51.7330604,25.0610852 L51.7330604,28.4355731 L50.8925449,28.4355731 L50.8925449,25.0610852 L49.9957062,25.0610852 L49.9957062,24.1409271 Z M47.1098312,24.1409271 L47.9503467,24.1409271 L47.9503467,25.8096299 L48.9031148,25.8096299 L48.9031148,24.1409271 L49.7436303,24.1409271 L49.7436303,28.4355731 L48.9031148,28.4355731 L48.9031148,26.729788 L47.9503467,26.729788 L47.9503467,28.4355731 L47.1098312,28.4355731 L47.1098312,24.1409271 Z M44.1672392,24.1409271 L46.7455028,24.1409271 L46.7455028,25.0610852 L45.0081486,25.0610852 L45.0081486,25.828171 L45.8935651,25.828171 L45.8935651,26.7483291 L45.0081486,26.7483291 L45.0081486,27.5149838 L46.7455028,27.5149838 L46.7455028,28.4355731 L44.1672392,28.4355731 L44.1672392,24.1409271 Z M40.9505146,28.4355731 L40.9505146,24.1409271 L41.7910301,24.1409271 L41.7910301,27.5149838 L42.7158335,27.5149838 L42.7158335,24.1409271 L43.5567429,24.1409271 L43.5567429,27.5149838 L43.9151633,27.5149838 L43.9151633,29 L43.0746478,29 L43.0746478,28.4355731 L40.9505146,28.4355731 Z M37.1004494,23.7666547 L38.5014399,23.7666547 L38.5014399,23 L37.1004494,23 L37.1004494,23.7666547 Z M38.3557085,24.1409271 L39.196224,24.1409271 L39.196224,28.4355731 L38.3557085,28.4355731 L38.3557085,25.8708588 L37.2461808,28.4355731 L36.4052714,28.4355731 L36.4052714,24.1409271 L37.2461808,24.1409271 L37.2461808,26.7052102 L38.3557085,24.1409271 Z M35.1165334,24.1409271 L35.957049,24.1409271 L35.957049,28.4355731 L35.1165334,28.4355731 L35.1165334,25.8708588 L34.0070057,28.4355731 L33.1660963,28.4355731 L33.1660963,24.1409271 L34.0070057,24.1409271 L34.0070057,26.7052102 L35.1165334,24.1409271 Z M30.9356186,26.729788 L30.9356186,28.4355731 L30.0951031,28.4355731 L30.0951031,24.1409271 L30.9356186,24.1409271 L30.9356186,25.8096299 L31.3223976,25.8096299 L32.0565686,24.1409271 L32.9419851,24.1409271 L31.9951251,26.2149479 L32.9983083,28.4355731 L32.0735049,28.4355731 L31.3223976,26.729788 L30.9356186,26.729788 Z M27.0686171,24.1409271 L29.70281,24.1409271 L29.70281,25.4784765 L28.8622945,25.4784765 L28.8622945,25.0610852 L27.9095265,25.0610852 L27.9095265,27.5149838 L28.8622945,27.5149838 L28.8622945,27.0984549 L29.70281,27.0984549 L29.70281,28.4355731 L27.0686171,28.4355731 L27.0686171,24.1409271 Z M24.0145602,24.1409271 L26.6483593,24.1409271 L26.6483593,27.1471793 L25.3084185,27.1471793 L25.3084185,26.2270212 L25.8078438,26.2270212 L25.8078438,25.0610852 L24.8550757,25.0610852 L24.8550757,28.4355731 L24.0145602,28.4355731 L24.0145602,24.1409271 Z M21.3693389,24.1409271 L23.3812196,24.1409271 L23.7620905,28.4355731 L22.921575,28.4355731 L22.837681,27.4231405 L22.3634632,27.4231405 L22.439086,26.5029824 L22.7648153,26.5029824 L22.6415344,25.0610852 L22.1090241,25.0610852 L22.0215853,26.080848 L22.0204037,26.080848 L21.8502525,28.1527129 L21.8522218,28.1527129 L21.8285897,28.4355731 L20.9880742,28.4355731 L21.3693389,24.1409271 Z M18.4885843,24.1409271 L20.6072033,24.1409271 L20.6072033,27.5149838 L20.9321448,27.5149838 L20.9321448,29 L20.0916293,29 L20.0916293,28.4355731 L19.7662939,28.4355731 L19.7662939,25.0610852 L19.2003048,25.0610852 L18.8922995,27.5149838 L19.3129512,27.5149838 L19.3129512,28.4355731 L18.5894146,28.4355731 L18.5894146,29 L17.7488991,29 L17.7488991,27.5149838 L18.0738407,27.5149838 L18.4885843,24.1409271 Z M16.5070315,24.1409271 L17.5972597,24.1409271 L17.5972597,28.4355731 L16.5070315,28.4355731 L16.5070315,27.5149838 L16.7571381,27.5149838 L16.7571381,25.0610852 L16.5070315,25.0610852 L16.5070315,24.1409271 Z M14.9634606,24.1409271 L16.0540827,24.1409271 L16.0540827,25.0610852 L15.8039761,25.0610852 L15.8039761,27.5149838 L16.0540827,27.5149838 L16.0540827,28.4355731 L14.9634606,28.4355731 L14.9634606,24.1409271 Z M11.8810452,24.1409271 L12.7215608,24.1409271 L12.7215608,25.8096299 L13.6743288,25.8096299 L13.6743288,24.1409271 L14.5152382,24.1409271 L14.5152382,28.4355731 L13.6743288,28.4355731 L13.6743288,26.729788 L12.7215608,26.729788 L12.7215608,28.4355731 L11.8810452,28.4355731 L11.8810452,24.1409271 Z M8.85495306,24.1409271 L11.4887521,24.1409271 L11.4887521,25.4784765 L10.6482366,25.4784765 L10.6482366,25.0610852 L9.69546857,25.0610852 L9.69546857,27.5149838 L10.6482366,27.5149838 L10.6482366,27.0984549 L11.4887521,27.0984549 L11.4887521,28.4355731 L8.85495306,28.4355731 L8.85495306,24.1409271 Z M6.20973178,24.1409271 L8.22161241,24.1409271 L8.60287718,28.4355731 L7.76196779,28.4355731 L7.67767992,27.4231405 L7.20424991,27.4231405 L7.27987267,26.5029824 L7.60481424,26.5029824 L7.48192724,25.0610852 L6.94941695,25.0610852 L6.86788615,26.0140137 L6.86670455,26.0140137 L6.83873988,26.3529285 L6.82613608,26.5029824 L6.82652995,26.5029824 L6.69655333,28.0858785 L6.6981288,28.0858785 L6.66898253,28.4355731 L5.82846701,28.4355731 L6.20973178,24.1409271 Z M3.07138706,24.1409271 L5.70518615,24.1409271 L5.70518615,27.1471793 L4.3652453,27.1471793 L4.3652453,26.2270212 L4.86467064,26.2270212 L4.86467064,25.0610852 L3.91190258,25.0610852 L3.91190258,28.4355731 L3.07138706,28.4355731 L3.07138706,24.1409271 Z M0.840515516,26.729788 L0.840515516,28.4355731 L0,28.4355731 L0,24.1409271 L0.840515516,24.1409271 L0.840515516,25.8096299 L1.22729445,25.8096299 L1.96146545,24.1409271 L2.84688198,24.1409271 L1.90002195,26.2149479 L2.90320519,28.4355731 L1.9784018,28.4355731 L1.22729445,26.729788 L0.840515516,26.729788 L0.840515516,26.729788 Z" id="Fill-1" fill="#1A1D1E" mask="url(#mask-3)"></path>
                <path d="M97.8887314,21.9980334 L97.8887314,21.9980334 L103.752079,0.0153395073 L106.710172,0.0373654664 L102.958733,14.1099868 L112.369269,0.00707977259 L115.190537,0.0153395073 L109.326794,21.9980334 L106.503555,21.9980334 L110.243164,7.97811707 L100.854316,21.9980334 L97.8887314,21.9980334 Z M46.9876163,21.9980334 L49.802181,21.9980334 L54.9194997,2.81302964 L60.6692872,2.81302964 L61.395601,0 L52.8513585,0.0153395073 L46.9876163,21.9980334 Z M0.952251864,2.81302964 L0.952251864,2.81302964 L1.69828107,0.0153395073 L13.1276693,0.0153395073 L12.4005668,2.81302964 L8.0998583,2.83859549 L2.98924281,21.9980334 L0,22 L5.11298133,2.82994243 L0.952251864,2.81302964 Z M21.3059947,21.9980334 L21.3059947,21.9980334 L27.1701312,0.0153395073 L38.5786212,0.0125862624 L32.7140903,21.9980334 L29.8794159,21.9980334 L34.9884542,2.80909644 L29.3471012,2.8236493 L24.2554125,21.9980334 L21.3059947,21.9980334 Z M67.2983796,14.8962348 L63.1124145,14.8962348 L62.3577106,17.7281439 L69.5009796,17.723424 L74.2054587,0.0153395073 L62.7232333,0.0153395073 L56.8831495,21.9980334 L59.7891935,21.9980334 L60.9192779,17.7293238 L60.9204608,17.7293238 L61.676742,14.8962348 L61.6747705,14.8962348 L64.8911342,2.81892945 L70.5230238,2.81263632 L67.2983796,14.8962348 Z M115.393605,14.8962348 L115.393605,14.8962348 L118.616672,2.81302964 L124.373951,2.81302964 L121.157587,14.9190474 L121.143392,14.9190474 L119.256238,21.9980334 L122.137046,21.9984267 L128,0.0228126006 L116.519352,0.0015732828 L111.790031,17.7187042 L113.378301,17.7336504 L110.651667,21.9980334 L113.498959,21.9980334 L116.144366,17.7312904 L118.956565,17.7328637 L119.708903,14.913541 L115.393605,14.8962348 Z M77.6800936,2.81302964 L77.6800936,2.81302964 L74.4566324,14.8962348 L74.457421,14.8962348 L73.7023227,17.7242107 L73.5978313,18.1167447 L73.3951574,18.8746737 L72.5623806,21.9972468 L69.6102027,21.9980334 L75.4735506,0.0153395073 L86.9766743,0.011799621 L81.1346189,21.9980334 L78.1828353,21.9980334 L79.3156799,17.7305038 L75.1387838,17.7261773 L75.8926992,14.8962348 L80.0774814,14.8962348 L83.2981825,2.8216827 L77.6800936,2.81302964 Z M40.6108804,21.9980334 L40.6108804,21.9980334 L41.3454747,19.2416419 L43.3201651,19.2416419 L47.7056497,2.81302964 L45.8212556,2.81302964 L46.5688621,0.00629313119 L51.4523566,0.0106196589 L45.5937404,21.9980334 L40.6108804,21.9980334 Z M42.1218656,2.81302964 L44.3840059,2.81302964 L45.1335839,0.00511316909 L39.9740743,0.0011799621 L34.0779989,21.9980334 L39.174025,21.9980334 L39.9098022,19.2416419 L37.7399298,19.2416419 L42.1218656,2.81302964 Z M8.48903949,21.9980334 L11.4550182,21.9980334 L20.8434724,7.97811707 L17.103863,21.9980334 L19.9271025,21.9980334 L25.7908447,0.0153395073 L22.9695767,0.00707977259 L13.558647,14.1099868 L17.3104799,0.0373654664 L14.3523874,0.0153395073 L8.48903949,21.9980334 Z M96.0279958,2.82994243 L98.8212679,2.83426896 L95.5741482,14.9178675 L94.2772719,14.9127543 L93.5284825,17.7242107 L97.7590044,17.7242107 L102.47689,0.0389387492 L88.2550182,0.0153395073 L83.531218,17.7242107 L87.7254636,17.7242107 L88.4774074,14.9072478 L87.176588,14.8962348 L90.3992607,2.81302964 L93.1361469,2.82876247 L89.9107141,14.9194408 L89.9099255,14.9194408 L89.1627133,17.7242107 L89.1631076,17.7242107 L89.0601935,18.109665 L88.8492391,18.9018129 L88.8488448,18.9018129 L88.0227712,21.9980334 L90.9512907,21.9980334 L91.8246812,18.7248185 L91.9619001,18.2083885 L92.9618631,14.4620088 L92.9662005,14.4616155 L96.0279958,2.82994243 L96.0279958,2.82994243 Z" id="Fill-3" fill="#1A1D1E" mask="url(#mask-3)"></path>
            </g>
        </g>
    </g>
</svg>